# xmcd CD database file
#
# Track frame offsets:
#	150
#	27355
#	46416
#	79363
#	120753
#	148274
#	176723
#	200077
#
# Disc length: 2911 seconds
#
# Revision: 0
# Processed by: cddbd v1.5.2PL0 Copyright (c) Steve Scherf et al.
# Submitted via: CDex 1.70beta2
#
DISCID=700b5d08
DTITLE=Eri Yamamoto Trio - Redwoods
DYEAR=2008
DGENRE=Jazz
TTITLE0=This Is An Apple
TTITLE1=Wonder Land
TTITLE2=Bumpy Trail
TTITLE3=Redwoods
TTITLE4=Bottled Water Princess
TTITLE5=Magnolia
TTITLE6=Story Teller
TTITLE7=Dear Friends
EXTD=YEAR: 2008
EXTT0=
EXTT1=
EXTT2=
EXTT3=
EXTT4=
EXTT5=
EXTT6=
EXTT7=
PLAYORDER=
